<svg xmlns="http://www.w3.org/2000/svg" width="92" height="92" class="wd-applet wd-applet-time-off" focusable="false" role="presentation" viewBox="0 0 92 92"><g fill="none" fill-rule="evenodd" class="wd-icon-container"><g fill="#0B77E3" fill-opacity=".2" class="animate-flood"><path d="M46 82c19.882 0 36-16.118 36-36S65.882 10 46 10 10 26.118 10 46s16.118 36 36 36z" class="color-400-alpha-20"></path></g><g class="animate-float"><path fill="#005CB9" fill-rule="nonzero" d="M3 7a2.998 2.998 0 0 1-3-2.999V2.999A2.995 2.995 0 0 1 3.002 0h19.996A2.998 2.998 0 0 1 26 2.999v1.002A2.995 2.995 0 0 1 23 7v10.993c0 .457-.058.904-.177 1.294a2.68 2.68 0 0 1-.384.798c-.376.526-.95.915-1.744.915H5.305c-.792 0-1.367-.388-1.744-.914-.18-.252-.3-.516-.385-.8A4.517 4.517 0 0 1 3 17.993V7.007 7zm2 0v10.993C5 18.55 5.137 19 5.305 19h15.39c.167 0 .305-.45.305-1.007V7.007 7H5z" class="color-500" transform="translate(33 5)"></path><rect width="22" height="3" x="2" y="2" fill="#0B77E3" class="color-400" rx="1" transform="translate(33 5)"></rect></g><path fill="#005CB9" fill-rule="nonzero" d="M26 73.007c0-.33.013-.645.037-.901.016-.168.037-.317.07-.463a2.19 2.19 0 0 1 .153-.46c.098-.205.098-.205.358-.537.451-.432.451-.432 1.477-.646h4.81c1.018.21 1.018.21 1.471.64.263.333.263.333.363.54.076.166.12.31.154.462.033.147.054.296.07.464.024.256.037.571.037.9v8.987c0 .33-.013.645-.037.901a3.696 3.696 0 0 1-.07.463 2.19 2.19 0 0 1-.153.46c-.098.205-.098.205-.358.537-.451.432-.451.432-1.477.646h-4.81c-1.018-.21-1.018-.21-1.471-.64-.263-.333-.263-.333-.363-.54a2.188 2.188 0 0 1-.154-.462 3.683 3.683 0 0 1-.07-.464 9.91 9.91 0 0 1-.037-.9v-8.987zm2 0v8.986c0 .556.043 1.007.095 1.007h4.81c.052 0 .095-.45.095-1.007v-8.986c0-.556-.043-1.007-.095-1.007h-4.81c-.052 0-.095.45-.095 1.007zm29 0c0-.33.013-.645.037-.901.016-.168.037-.317.07-.463a2.19 2.19 0 0 1 .153-.46c.098-.205.098-.205.358-.537.451-.432.451-.432 1.477-.646h4.81c1.018.21 1.018.21 1.471.64.263.333.263.333.363.54.076.166.12.31.154.462.033.147.054.296.07.464.024.256.037.571.037.9v8.987c0 .33-.013.645-.037.901a3.696 3.696 0 0 1-.07.463 2.19 2.19 0 0 1-.153.46c-.098.205-.098.205-.358.537-.451.432-.451.432-1.477.646h-4.81c-1.018-.21-1.018-.21-1.471-.64-.263-.333-.263-.333-.363-.54a2.188 2.188 0 0 1-.154-.462 3.683 3.683 0 0 1-.07-.464 9.91 9.91 0 0 1-.037-.9v-8.987zm2 0v8.986c0 .556.043 1.007.095 1.007h4.81c.052 0 .095-.45.095-1.007v-8.986c0-.556-.043-1.007-.095-1.007h-4.81c-.052 0-.095.45-.095 1.007z" class="color-500"></path><path fill="#0B77E3" d="M28 70.007c0-.556.043-1.007.095-1.007h4.81c.052 0 .095.45.095 1.007v11.986c0 .556-.043 1.007-.095 1.007h-4.81c-.052 0-.095-.45-.095-1.007V70.007zm31 0c0-.556.043-1.007.095-1.007h4.81c.052 0 .095.45.095 1.007v11.986c0 .556-.043 1.007-.095 1.007h-4.81c-.052 0-.095-.45-.095-1.007V70.007z" class="color-400"></path><path fill="#000" d="M28 79.056c0-.031.043-.056.095-.056h4.81c.052 0 .095.025.095.056v2.888c0 .031-.043.056-.095.056h-4.81c-.052 0-.095-.025-.095-.056v-2.888zm31 0c0-.031.043-.056.095-.056h4.81c.052 0 .095.025.095.056v2.888c0 .031-.043.056-.095.056h-4.81c-.052 0-.095-.025-.095-.056v-2.888z" class="color-shadow" opacity=".1"></path><path fill="#005CB9" d="M19 22.007A4.999 4.999 0 0 1 23.997 17h44.006A5 5 0 0 1 73 22.007v52.986A4.999 4.999 0 0 1 68.003 80H23.997A5 5 0 0 1 19 74.993V22.007zm2 0v52.986A3 3 0 0 0 23.997 78h44.006A2.999 2.999 0 0 0 71 74.993V22.007A3 3 0 0 0 68.003 19H23.997A2.999 2.999 0 0 0 21 22.007z" class="color-500"></path><path fill="#A6D2FF" d="M21 22.007A2.999 2.999 0 0 1 23.997 19h44.006A3 3 0 0 1 71 22.007v52.986A2.999 2.999 0 0 1 68.003 78H23.997A3 3 0 0 1 21 74.993V22.007z" class="color-200"></path><path fill="#005CB9" fill-rule="nonzero" d="M28 23h36a2 2 0 0 1 2 2v11.994A4 4 0 0 1 62 41H30c-2.21 0-4-1.794-4-4.006V25a2 2 0 0 1 2-2zm0 21h36a2 2 0 0 1 2 2v21.995A3.999 3.999 0 0 1 62 72H30c-2.21 0-4-1.794-4-4.005V46a2 2 0 0 1 2-2zm0-19v11.994c0 1.109.895 2.006 2 2.006h32a2 2 0 0 0 2-2.006V25H28zm0 21v21.995c0 1.108.895 2.005 2 2.005h32c1.11 0 2-.898 2-2.005V46H28z" class="color-500"></path><path fill="#FFF" d="M28 25h36v11.994A2 2 0 0 1 62 39H30c-1.105 0-2-.897-2-2.006V25zm0 21h36v21.995C64 69.102 63.11 70 62 70H30c-1.105 0-2-.897-2-2.005V46z" class="color-100"></path><path fill="#005CB9" d="M31.5 29a1 1 0 0 1 0-2h29a1 1 0 0 1 0 2h-29zM60 50H31.5a1 1 0 0 1 0-2h29a1 1 0 0 1 0 2H60z" class="color-500"></path><g class="animate-left"><path fill="#005CB9" d="M54 50h6v3a3 3 0 1 1-6 0v-3z" class="color-500"></path><path fill="#A6D2FF" d="M56 50h2v2.99a1 1 0 1 1-2 0V50z" class="color-200"></path></g><g class="animate-left"><path fill="#005CB9" d="M54 29h6v3a3 3 0 1 1-6 0v-3z" class="color-500"></path><path fill="#A6D2FF" d="M56 29h2v2.99a1 1 0 1 1-2 0V29z" class="color-200"></path></g></g></svg>