<svg xmlns="http://www.w3.org/2000/svg" width="56" height="56" class="wd-accent-megaphone wd-accent" focusable="false" role="presentation" viewBox="0 0 56 56"><g fill="none" fill-rule="evenodd" class="wd-icon-container"><path fill="#005DBA" fill-rule="nonzero" d="M34 41.016v1.38a3 3 0 0 1-3.773 2.9l-11-2.934A3 3 0 0 1 17 39.463v-3.385l-7.644-2.22A3 3 0 0 1 4 32v-8.001a3 3 0 0 1 5.356-1.857l36.688-10.657A3 3 0 0 1 52 12v32a3 3 0 0 1-5.956.514L34 41.016zm-2-.581l-13-3.776v2.804a1 1 0 0 0 .742.967l11 2.933A1 1 0 0 0 32 42.397v-1.962zm-22-8.473l36 10.457V13.581L10 24.038v7.924zm7.275-6a1 1 0 1 1-.55-1.924l21-6a1 1 0 1 1 .55 1.924l-21 6zM41 19a1 1 0 1 1 0-2 1 1 0 0 1 0 2zM7 23a1 1 0 0 0-1 1v8a1 1 0 0 0 2 0v-8a1 1 0 0 0-1-1zm42-12a1 1 0 0 0-1 1v32a1 1 0 0 0 2 0V12a1 1 0 0 0-1-1z" class="color-500"></path><path fill="#FFF" d="M10 31.962v-7.924l36-10.457v28.838L10 31.962zm7.275-6l21-6a1 1 0 1 0-.55-1.924l-21 6a1 1 0 1 0 .55 1.924zM41 19a1 1 0 1 0 0-2 1 1 0 0 0 0 2zM7 23a1 1 0 0 1 1 1v8a1 1 0 0 1-2 0v-8a1 1 0 0 1 1-1zm42-12a1 1 0 0 1 1 1v32a1 1 0 0 1-2 0V12a1 1 0 0 1 1-1z" class="french-vanilla-100"></path></g></svg>