<svg xmlns="http://www.w3.org/2000/svg" width="56" height="56" class="wd-accent-puzzle wd-accent" focusable="false" role="presentation" viewBox="0 0 56 56"><g fill="none" fill-rule="evenodd" class="wd-icon-container"><path fill="#005DBA" fill-rule="nonzero" d="M43 33a5 5 0 1 0-2-9.584V15H31a5 5 0 1 0-8 0H11v6.29a7 7 0 1 1 0 13.42V45h9.29a7 7 0 1 1 13.42 0H41V32.584A4.983 4.983 0 0 0 43 33zm0 2v10a2 2 0 0 1-2 2h-7.29a2 2 0 0 1-1.917-2.57 5 5 0 1 0-9.586 0A2 2 0 0 1 20.29 47H11a2 2 0 0 1-2-2V34.71a2 2 0 0 1 2.57-1.917 5 5 0 1 0 0-9.586A2 2 0 0 1 9 21.29V15a2 2 0 0 1 2-2h9.071a7 7 0 1 1 13.858 0H41a2 2 0 0 1 2 2v6a7 7 0 0 1 0 14z" class="color-500"></path><path fill="#FFF" d="M43 33a5 5 0 1 0-2-9.584V15H31a5 5 0 1 0-8 0H11v6.29a7 7 0 1 1 0 13.42V45h9.29a7 7 0 1 1 13.42 0H41V32.584A4.983 4.983 0 0 0 43 33z" class="french-vanilla-100"></path></g></svg>