<svg xmlns="http://www.w3.org/2000/svg" width="56" height="56" class="wd-accent-open-book wd-accent" focusable="false" role="presentation" viewBox="0 0 56 56"><g fill="none" fill-rule="evenodd" class="wd-icon-container"><path fill="#005DBA" fill-rule="nonzero" d="M28.944 44H27.05a2.02 2.02 0 0 1-.385-.028c-3.8-.649-7.325-.972-10.572-.972-3.233 0-6.467.32-9.703.962A2 2 0 0 1 4 42V13a2 2 0 0 1 1.58-1.955C8.827 10.347 12.335 10 16.103 10c3.754 0 7.507.344 11.258 1.033.23.042.445.123.639.235.177-.102.372-.179.58-.223C31.827 10.347 35.335 10 39.103 10c3.754 0 7.507.344 11.258 1.033A2 2 0 0 1 52 13v29a2 2 0 0 1-2.336 1.972c-3.8-.649-7.325-.972-10.572-.972-3.233 0-6.467.32-9.703.962-.15.03-.3.042-.445.038zM6 13v29a51.79 51.79 0 0 1 10.092-1c3.365 0 7 .333 10.908 1V13c-3.633-.667-7.265-1-10.897-1-3.631 0-7 .333-10.103 1zm23 0v29a51.79 51.79 0 0 1 10.092-1c3.365 0 7 .333 10.908 1V13c-3.633-.667-7.265-1-10.897-1-3.631 0-7 .333-10.103 1zM9.23 17.707a1 1 0 1 1-.46-1.947c2.147-.507 4.47-.76 6.966-.76 2.487 0 4.975.251 7.462.753a1 1 0 1 1-.396 1.96A35.628 35.628 0 0 0 15.736 17c-2.346 0-4.515.236-6.506.707zm0 5a1 1 0 1 1-.46-1.947c2.147-.507 4.47-.76 6.966-.76 2.487 0 4.975.251 7.462.753a1 1 0 1 1-.396 1.96A35.628 35.628 0 0 0 15.736 22c-2.346 0-4.515.236-6.506.707zm0 5a1 1 0 1 1-.46-1.947c2.147-.507 4.47-.76 6.966-.76 2.487 0 4.975.251 7.462.753a1 1 0 1 1-.396 1.96A35.628 35.628 0 0 0 15.736 27c-2.346 0-4.515.236-6.506.707zm0 5a1 1 0 1 1-.46-1.947c2.147-.507 4.47-.76 6.966-.76 2.487 0 4.975.251 7.462.753a1 1 0 1 1-.396 1.96A35.628 35.628 0 0 0 15.736 32c-2.346 0-4.515.236-6.506.707zm0 5a1 1 0 1 1-.46-1.947c2.147-.507 4.47-.76 6.966-.76 2.487 0 4.975.251 7.462.753a1 1 0 1 1-.396 1.96A35.628 35.628 0 0 0 15.736 37c-2.346 0-4.515.236-6.506.707zm24-20a1 1 0 1 1-.46-1.947c2.147-.507 4.47-.76 6.966-.76 2.487 0 4.975.251 7.462.753a1 1 0 1 1-.396 1.96A35.628 35.628 0 0 0 39.736 17c-2.346 0-4.515.236-6.506.707zm0 5a1 1 0 1 1-.46-1.947c2.147-.507 4.47-.76 6.966-.76 2.487 0 4.975.251 7.462.753a1 1 0 1 1-.396 1.96A35.628 35.628 0 0 0 39.736 22c-2.346 0-4.515.236-6.506.707zm0 5a1 1 0 1 1-.46-1.947c2.147-.507 4.47-.76 6.966-.76 2.487 0 4.975.251 7.462.753a1 1 0 1 1-.396 1.96A35.628 35.628 0 0 0 39.736 27c-2.346 0-4.515.236-6.506.707zm0 5a1 1 0 1 1-.46-1.947c2.147-.507 4.47-.76 6.966-.76 2.487 0 4.975.251 7.462.753a1 1 0 1 1-.396 1.96A35.628 35.628 0 0 0 39.736 32c-2.346 0-4.515.236-6.506.707zm0 5a1 1 0 1 1-.46-1.947c2.147-.507 4.47-.76 6.966-.76 1.178 0 2.356.056 3.534.169a1 1 0 0 1-.19 1.99A35.122 35.122 0 0 0 39.736 37c-2.346 0-4.515.236-6.506.707z" class="color-500"></path><path fill="#FFF" d="M6 13c3.104-.667 6.472-1 10.103-1 3.632 0 7.264.333 10.897 1v29c-3.907-.667-7.543-1-10.908-1A51.79 51.79 0 0 0 6 42V13zm23 0c3.104-.667 6.472-1 10.103-1 3.632 0 7.264.333 10.897 1v29c-3.907-.667-7.543-1-10.908-1A51.79 51.79 0 0 0 29 42V13zM9.23 17.707c1.991-.47 4.16-.707 6.506-.707 2.354 0 4.71.238 7.066.714a1 1 0 0 0 .396-1.96A37.628 37.628 0 0 0 15.736 15c-2.497 0-4.819.253-6.966.76a1 1 0 0 0 .46 1.947zm0 5c1.991-.47 4.16-.707 6.506-.707 2.354 0 4.71.238 7.066.714a1 1 0 0 0 .396-1.96A37.628 37.628 0 0 0 15.736 20c-2.497 0-4.819.253-6.966.76a1 1 0 0 0 .46 1.947zm0 5c1.991-.47 4.16-.707 6.506-.707 2.354 0 4.71.238 7.066.714a1 1 0 0 0 .396-1.96A37.628 37.628 0 0 0 15.736 25c-2.497 0-4.819.253-6.966.76a1 1 0 0 0 .46 1.947zm0 5c1.991-.47 4.16-.707 6.506-.707 2.354 0 4.71.238 7.066.714a1 1 0 0 0 .396-1.96A37.628 37.628 0 0 0 15.736 30c-2.497 0-4.819.253-6.966.76a1 1 0 0 0 .46 1.947zm0 5c1.991-.47 4.16-.707 6.506-.707 2.354 0 4.71.238 7.066.714a1 1 0 0 0 .396-1.96A37.628 37.628 0 0 0 15.736 35c-2.497 0-4.819.253-6.966.76a1 1 0 0 0 .46 1.947zm24-20c1.991-.47 4.16-.707 6.506-.707 2.354 0 4.71.238 7.066.714a1 1 0 0 0 .396-1.96A37.628 37.628 0 0 0 39.736 15c-2.497 0-4.819.253-6.966.76a1 1 0 0 0 .46 1.947zm0 5c1.991-.47 4.16-.707 6.506-.707 2.354 0 4.71.238 7.066.714a1 1 0 0 0 .396-1.96A37.628 37.628 0 0 0 39.736 20c-2.497 0-4.819.253-6.966.76a1 1 0 0 0 .46 1.947zm0 5c1.991-.47 4.16-.707 6.506-.707 2.354 0 4.71.238 7.066.714a1 1 0 0 0 .396-1.96A37.628 37.628 0 0 0 39.736 25c-2.497 0-4.819.253-6.966.76a1 1 0 0 0 .46 1.947zm0 5c1.991-.47 4.16-.707 6.506-.707 2.354 0 4.71.238 7.066.714a1 1 0 0 0 .396-1.96A37.628 37.628 0 0 0 39.736 30c-2.497 0-4.819.253-6.966.76a1 1 0 0 0 .46 1.947zm0 5c1.991-.47 4.16-.707 6.506-.707 1.114 0 2.229.053 3.344.16a1 1 0 1 0 .19-1.991A37.122 37.122 0 0 0 39.736 35c-2.497 0-4.819.253-6.966.76a1 1 0 0 0 .46 1.947z" class="french-vanilla-100"></path></g></svg>