<svg xmlns="http://www.w3.org/2000/svg" width="92" height="92" class="wd-applet wd-applet-performance-reviews" focusable="false" role="presentation" viewBox="0 0 92 92"><g fill="none" fill-rule="evenodd" class="wd-icon-container"><g fill="#0B77E3" fill-opacity=".2" class="animate-flood"><path d="M46 82c19.882 0 36-16.118 36-36S65.882 10 46 10 10 26.118 10 46s16.118 36 36 36z" class="color-400-alpha-20"></path></g><path fill="#005CB9" fill-rule="nonzero" d="M41.248 35.59l1.514 1.306L30.104 51.41l-1.514-1.306L41.248 35.59zm22.161 14.527l-1.526 1.292L49.59 36.883l1.526-1.292L63.41 50.117z" class="color-500"></path><g class="animate-grow"><path fill="#FFF" d="M35 38V28h6.4v10H35zm16 0V8h6.4v30H51z" class="color-100"></path><path fill="#40A0FF" d="M42 39.084h8V17h-8z" class="color-300"></path><path fill="#005CB9" fill-rule="nonzero" d="M50.032 40h-7.984l-.047.002h-8.004a.996.996 0 0 1-.997-.997V26.996c0-.55.447-.996.997-.996H41v-9.002c0-.551.447-.998.997-.998H49V7c0-.553.447-1 .997-1h8.406c.55 0 .997.455.997 1v32c0 .553-.447 1-.997 1h-8.371zM41 28h-6v10.002h6V28zm2 10h6V18h-6v20zm8 0h6.4V8H51v30z" class="color-500"></path></g><g class="animate-grow"><path fill="#A6D2FF" d="M6 24.381A12.957 12.957 0 0 0 15 28c3.493 0 6.664-1.377 9-3.619V23h.624H24c0-1.659-1.34-3-2.992-3H8.992A2.993 2.993 0 0 0 6 23h-.624H6v1.381zm-1.913-2.314A12.94 12.94 0 0 1 2 15C2 7.82 7.819 2 15 2c7.18 0 13 5.819 13 13a12.94 12.94 0 0 1-2.087 7.067A4.995 4.995 0 0 0 21.008 18H8.992a4.992 4.992 0 0 0-4.905 4.067zM18.315 18h-6.632A5.997 5.997 0 0 1 9 12.998v-2.996A6.004 6.004 0 0 1 15 4c3.314 0 6 2.688 6 6.002v2.996A6 6 0 0 1 18.315 18z" class="color-200" transform="translate(53 48)"></path><path fill="#40A0FF" d="M6 24.381A12.957 12.957 0 0 0 15 28c3.493 0 6.664-1.377 9-3.619V23h.624H24c0-1.659-1.34-3-2.992-3H8.992A2.993 2.993 0 0 0 6 23h-.624H6v1.381z" class="color-300" transform="translate(53 48)"></path><rect width="9" height="12" x="10.5" y="5.5" fill="#FFF" class="color-100" rx="4.5" transform="translate(53 48)"></rect><path fill="#005CB9" fill-rule="nonzero" d="M0 15C0 6.715 6.715 0 15 0s15 6.715 15 15-6.715 15-15 15S0 23.285 0 15zm6 9.381A12.957 12.957 0 0 0 15 28c3.493 0 6.664-1.377 9-3.619V23h.624H24c0-1.659-1.34-3-2.992-3H8.992A2.993 2.993 0 0 0 6 23h-.624H6v1.381zm-1.913-2.314A4.992 4.992 0 0 1 8.992 18h12.016c2.439 0 4.47 1.75 4.905 4.067A12.94 12.94 0 0 0 28 15c0-7.181-5.82-13-13-13C7.819 2 2 7.82 2 15c0 2.606.767 5.033 2.087 7.067zM18.315 18h-6.632A5.997 5.997 0 0 1 9 12.998v-2.996A6.004 6.004 0 0 1 15 4c3.314 0 6 2.688 6 6.002v2.996A6 6 0 0 1 18.315 18zM11 10.002v2.996C11 15.208 12.79 17 15 17c2.205 0 4-1.792 4-4.002v-2.996C19 7.792 17.21 6 15 6c-2.205 0-4 1.792-4 4.002z" class="color-500" transform="translate(53 48)"></path></g><g class="animate-grow"><path fill="#A6D2FF" d="M6 24.381A12.957 12.957 0 0 0 15 28c3.493 0 6.664-1.377 9-3.619V23h.624H24c0-1.659-1.34-3-2.992-3H8.992A2.993 2.993 0 0 0 6 23h-.624H6v1.381zm-1.913-2.314A12.94 12.94 0 0 1 2 15C2 7.82 7.819 2 15 2c7.18 0 13 5.819 13 13a12.94 12.94 0 0 1-2.087 7.067A4.995 4.995 0 0 0 21.008 18H8.992a4.992 4.992 0 0 0-4.905 4.067zM18.315 18h-6.632A5.997 5.997 0 0 1 9 12.998v-2.996A6.004 6.004 0 0 1 15 4c3.314 0 6 2.688 6 6.002v2.996A6 6 0 0 1 18.315 18z" class="color-200" transform="translate(9 48)"></path><path fill="#40A0FF" d="M6 24.381A12.957 12.957 0 0 0 15 28c3.493 0 6.664-1.377 9-3.619V23h.624H24c0-1.659-1.34-3-2.992-3H8.992A2.993 2.993 0 0 0 6 23h-.624H6v1.381z" class="color-300" transform="translate(9 48)"></path><rect width="9" height="12" x="10.5" y="5.5" fill="#FFF" class="color-100" rx="4.5" transform="translate(9 48)"></rect><path fill="#005CB9" fill-rule="nonzero" d="M0 15C0 6.715 6.715 0 15 0s15 6.715 15 15-6.715 15-15 15S0 23.285 0 15zm6 9.381A12.957 12.957 0 0 0 15 28c3.493 0 6.664-1.377 9-3.619V23h.624H24c0-1.659-1.34-3-2.992-3H8.992A2.993 2.993 0 0 0 6 23h-.624H6v1.381zm-1.913-2.314A4.992 4.992 0 0 1 8.992 18h12.016c2.439 0 4.47 1.75 4.905 4.067A12.94 12.94 0 0 0 28 15c0-7.181-5.82-13-13-13C7.819 2 2 7.82 2 15c0 2.606.767 5.033 2.087 7.067zM18.315 18h-6.632A5.997 5.997 0 0 1 9 12.998v-2.996A6.004 6.004 0 0 1 15 4c3.314 0 6 2.688 6 6.002v2.996A6 6 0 0 1 18.315 18zM11 10.002v2.996C11 15.208 12.79 17 15 17c2.205 0 4-1.792 4-4.002v-2.996C19 7.792 17.21 6 15 6c-2.205 0-4 1.792-4 4.002z" class="color-500" transform="translate(9 48)"></path></g></g></svg>