<svg xmlns="http://www.w3.org/2000/svg" width="92" height="92" class="wd-applet wd-applet-financials" focusable="false" role="presentation" viewBox="0 0 92 92"><g fill="none" fill-rule="evenodd" class="wd-icon-container"><g fill="#0B77E3" fill-opacity=".2" class="animate-flood"><path d="M46 82c19.882 0 36-16.118 36-36S65.882 10 46 10 10 26.118 10 46s16.118 36 36 36z" class="color-400-alpha-20"></path></g><g class="animate-float-rotate-right"><path fill="#A6D2FF" d="M41.4 74.098l9.272 3.746c9.503 3.251 20.001-1.455 23.807-10.874 3.931-9.729-.77-20.803-10.499-24.734-2.83-1.143-9.094-1.517-9.094-1.517L41.4 74.1z" class="color-200"></path><path fill="#40A0FF" d="M40.387 7.374l-23.391 58.07 28.478 11.8 23.49-58.636L40.387 7.374zm-13.706 7.79l-7.136 33.838.3.026 10.292-33.422-3.456-.442zm4.433 2.77l-9.223 30.18.422.017 11.982-29.758-3.181-.44z" class="color-300"></path><path fill="#000" d="M26.68 15.164l-7.135 33.838.3.026 10.292-33.422-3.456-.442zm4.434 2.77l-9.222 30.18.422.017 11.982-29.758-3.182-.44z" class="color-shadow" opacity=".1"></path><path fill="#FFF" d="M40.273 7.138l-2.547 6.605s6.942 1.638 9.188-3.922l-6.641-2.683zm26.372 18.555l2.858-7.071-6.992-2.811c-2.247 5.56 4.134 9.882 4.134 9.882zM45.63 77.659l2.547-6.605s-6.94-1.638-9.188 3.922l6.641 2.683zm.16-43.222c-4.096-1.655-9.076.56-10.73 4.657-1.656 4.096.63 9.069 4.725 10.724 4.097 1.655 8.916-.498 10.571-4.595 1.655-4.097-.469-9.131-4.566-10.786zm-26.257 24.58l-2.756 6.52 6.641 2.684c2.246-5.56-3.885-9.204-3.885-9.204zm11.93-42.852l-5.083-1.09-1.026 5.492s4.49 1.485 6.185-3.841c.867.384 4.47 1.565 6.196-4.371.062.019-4.904-1.825-4.904-1.825l-1.369 5.635z" class="color-100"></path><path fill="#005CB9" fill-rule="nonzero" d="M64.432 41.95l-19.005-7.677a3.504 3.504 0 0 0-4.56 1.933 3.505 3.505 0 0 0 1.938 4.557l11.94 4.824c-1.896 9.679 3.265 19.654 12.75 23.486 1.305.528 3.623 1.169 4.955 1.423 1.194-1.418 1.848-3.04 2.58-4.852 3.724-9.217-1.381-19.97-10.598-23.693zm-22.376.667a5.505 5.505 0 0 1-3.042-7.16 5.504 5.504 0 0 1 7.162-3.039l19.005 7.678C75.422 44.234 80.024 56.13 76.893 66.12c-.64 2.04-1.38 3.828-2.73 5.43l-.718.911-2.36-.256a23.093 23.093 0 0 1-4.34-1.278c-9.74-3.935-15.462-13.899-14.223-24.082l-10.466-4.228zm18.7-2.896c1.764.283 1.89.223 2.974.66 10.753 4.346 16.949 16.586 12.604 27.339-4.19 10.368-16.764 13.624-27.309 10.017l-2.996-1.21L60.756 39.72zm-13.36 35.204l2.276.92c9.503 3.25 21.001.544 24.807-8.875 3.931-9.729-.859-18.461-9.822-22.423-2.804-1.24-4.165-2.713-4.165-2.713l-13.095 33.09zM41.322 7.742a1.016 1.016 0 0 0-1.311.568L17.373 64.508a1.015 1.015 0 0 0 .538 1.315L44.56 76.865a.984.984 0 0 0 1.284-.542L68.595 19.53a.988.988 0 0 0-.566-1.289L41.321 7.742zm27.44 8.637a2.988 2.988 0 0 1 1.69 3.893L47.7 77.067a2.984 2.984 0 0 1-3.906 1.646L17.146 67.67c-1.523-.63-2.243-2.383-1.628-3.91L38.155 7.564a3.016 3.016 0 0 1 3.898-1.683L68.761 16.38zM39.036 51.672c-5.144-2.078-7.891-8.229-5.831-13.327 2.074-5.135 8.227-7.826 13.334-5.763 5.12 2.068 7.74 8.267 5.672 13.39-2.075 5.136-8.068 7.763-13.175 5.7zm11.32-6.45c1.655-4.096-.469-9.13-4.566-10.785-4.096-1.655-9.076.56-10.73 4.657-1.656 4.096.63 9.069 4.725 10.724 4.097 1.655 8.916-.498 10.571-4.595zm-36.28 9.359a3.002 3.002 0 0 0-3.876 1.725 3.003 3.003 0 0 0 1.726 3.876l3.734 1.433a3.002 3.002 0 0 0 3.876-1.725 3.003 3.003 0 0 0-1.726-3.876l-3.734-1.433zm4.45-.435a5.004 5.004 0 0 1 2.877 6.461 5.002 5.002 0 0 1-6.46 2.875l-3.734-1.433a5.003 5.003 0 0 1-2.876-6.46 5.002 5.002 0 0 1 6.46-2.876l3.734 1.433zm-1.584-7.035a3 3 0 1 0-2.151 5.602l6.538 2.509a2.999 2.999 0 1 0 2.15-5.601l-6.537-2.51zm.716-1.868l6.537 2.51a5 5 0 1 1-3.583 9.336l-6.538-2.51a5 5 0 0 1 3.584-9.336zm2.149-5.601a3 3 0 0 0-2.15 5.602l5.607 2.152a3 3 0 0 0 2.15-5.602l-5.607-2.152zm.717-1.868l5.608 2.153a5 5 0 0 1-3.584 9.336L16.94 47.11a5 5 0 0 1 3.584-9.336zm2.154-5.6A3.002 3.002 0 0 0 18.8 33.9a2.998 2.998 0 0 0 1.727 3.877l1.864.715a3.003 3.003 0 0 0 3.878-1.725 2.997 2.997 0 0 0-1.728-3.876l-1.864-.716zm5.188-9.845a6.939 6.939 0 0 1-1.919-.108l-1.918 8.33 1.228.472.109.043 2.5-8.737zm.587-2.05l1.097-3.833-2.129-.312c-.027-.004-.08.032-.087.064l-.938 4.073c.64.116 1.407.164 2.057.008zm2.721-2.24l-4.069 14.218a5 5 0 0 1 1.032 5.227 5.003 5.003 0 0 1-6.461 2.875l-1.865-.715a4.998 4.998 0 0 1-2.878-6.46 5.004 5.004 0 0 1 5.17-3.185l3.282-14.25a2.096 2.096 0 0 1 2.327-1.594l2.393.351.82-2.864c.449-1.57 2.087-2.537 3.684-2.18l3.638.815-.437 1.952-3.638-.815c-.566-.127-1.168.229-1.325.778l-1.14 3.985c.82.19 2.144.313 3.208.04l-.107 1.997c-1.062.277-2.541.087-3.634-.175zm5.472-3.115l.708-1.87c.14.052.425.141.822.232 1.411.325 2.897.363 4.252-.057 1.644-.51 2.948-1.655 3.83-3.636l1.827.814c-1.118 2.51-2.874 4.053-5.064 4.732-1.743.54-3.567.493-5.293.097a8.807 8.807 0 0 1-1.082-.312zm-15.34 45.794l.359-2.256s.842.633 1.275 1.038c2.57 2.401 3.604 5.571 2.141 9.382l-1.867-.716c1.143-2.977.379-5.32-1.64-7.205-.106-.1-.268-.243-.268-.243zm45.315-35.923l-.822 1.823c-.712-.32-1.731-.945-2.753-1.9-2.57-2.401-3.605-5.571-2.141-9.382l1.867.716c-1.143 2.977-.379 5.32 1.64 7.205.49.458 1.018.85 1.545 1.172.31.19.546.313.664.366zM48.594 69.668l-.708 1.87a6.97 6.97 0 0 0-.823-.233c-1.41-.324-2.896-.362-4.251.058-1.644.51-2.948 1.655-3.83 3.635l-1.827-.813c1.118-2.51 2.874-4.053 5.064-4.732 1.743-.54 3.567-.494 5.293-.097.49.113.862.228 1.082.312z" class="color-500"></path><path fill="#FFF" d="M45.427 34.273a3.504 3.504 0 0 0-4.56 1.933 3.505 3.505 0 0 0 1.938 4.557l11.94 4.824c-1.896 9.679 3.265 19.654 12.75 23.486 1.305.528 3.643 1.199 4.975 1.453 1.194-1.418 1.681-2.629 2.35-4.465 3.25-8.915-1.171-20.386-10.388-24.11l-19.005-7.678zM14.076 54.58a3.002 3.002 0 0 0-3.876 1.725 3.003 3.003 0 0 0 1.726 3.876l3.734 1.433a3.002 3.002 0 0 0 3.876-1.725 3.003 3.003 0 0 0-1.726-3.876l-3.734-1.433zm2.866-7.47a3 3 0 1 0-2.151 5.602l6.538 2.509a2.999 2.999 0 1 0 2.15-5.601l-6.537-2.51zm2.865-7.47a3 3 0 0 0-2.15 5.603l5.607 2.152a3 3 0 0 0 2.15-5.602l-5.607-2.152zm2.87-7.466a3.002 3.002 0 0 0-3.876 1.725 2.998 2.998 0 0 0 1.727 3.877l1.864.715a3.003 3.003 0 0 0 3.878-1.725 2.997 2.997 0 0 0-1.728-3.876l-1.864-.716z" class="color-100"></path></g></g></svg>