<svg xmlns="http://www.w3.org/2000/svg" width="56" height="56" class="wd-accent-filing-tray wd-accent" focusable="false" role="presentation" viewBox="0 0 56 56"><g fill="none" fill-rule="nonzero" class="wd-icon-container"><path fill="#005DBA" d="M6.066 37.501a1.97 1.97 0 0 1 .241-1.561l4.696-7.514V13c0-1.306.835-2.417 2-2.83V10a3 3 0 0 1 3-3 3 3 0 0 1 3-3h18a3 3 0 0 1 3 3 3 3 0 0 1 3 3v.17c1.165.413 2 1.524 2 2.83v15.432l4.693 7.508c.313.5.373 1.056.243 1.555.042.162.064.33.064.505v12a2 2 0 0 1-2 2h-40a2 2 0 0 1-2-2V38c0-.172.022-.34.063-.499zM8.628 36h2.375v-3.8L8.628 36zm38.75 0l-2.375-3.8V36h2.375zm-4.375 0V13a1 1 0 0 0-1-1h-28a1 1 0 0 0-1 1v23h6a2 2 0 0 1 2 2v3a1 1 0 0 0 1 1h12a1 1 0 0 0 1-1v-3a2 2 0 0 1 2-2h6zm-28-26h26a1 1 0 0 0-1-1h-24a1 1 0 0 0-1 1zm23-3a1 1 0 0 0-1-1h-18a1 1 0 0 0-1 1h20zm-19 31h-11v12h40V38h-11v3a3 3 0 0 1-3 3h-12a3 3 0 0 1-3-3v-3zm0-20h18a1 1 0 0 1 0 2h-18a1 1 0 1 1 0-2zm0 5h18a1 1 0 0 1 0 2h-18a1 1 0 1 1 0-2zm0 5h18a1 1 0 0 1 0 2h-18a1 1 0 1 1 0-2z" class="color-500"></path><path fill="#FFF" d="M8.628 36h2.375v-3.8L8.628 36zm38.75 0l-2.375-3.8V36h2.375zm-4.375 0V13a1 1 0 0 0-1-1h-28a1 1 0 0 0-1 1v23h6a2 2 0 0 1 2 2v3a1 1 0 0 0 1 1h12a1 1 0 0 0 1-1v-3a2 2 0 0 1 2-2h6zm-28-26h26a1 1 0 0 0-1-1h-24a1 1 0 0 0-1 1zm23-3a1 1 0 0 0-1-1h-18a1 1 0 0 0-1 1h20zm-19 31h-11v12h40V38h-11v3a3 3 0 0 1-3 3h-12a3 3 0 0 1-3-3v-3zm0-20h18a1 1 0 0 1 0 2h-18a1 1 0 1 1 0-2zm0 5h18a1 1 0 0 1 0 2h-18a1 1 0 1 1 0-2zm0 5h18a1 1 0 0 1 0 2h-18a1 1 0 1 1 0-2z" class="french-vanilla-100"></path></g></svg>