<svg xmlns="http://www.w3.org/2000/svg" width="56" height="56" class="wd-accent-laptop-play wd-accent" focusable="false" role="presentation" viewBox="0 0 56 56"><g fill="none" fill-rule="evenodd" class="wd-icon-container"><path fill="#005DBA" fill-rule="nonzero" d="M50 40a2 2 0 0 1 2 2v2a2 2 0 0 1-2 2H6a2 2 0 0 1-2-2v-2a2 2 0 0 1 2-2V13a2 2 0 0 1 2-2h40a2 2 0 0 1 2 2v27zM8 13v27h40V13H8zM6 42v2h44v-2H6zm26.69-15.51v.005c.191.1.31.296.31.508a.575.575 0 0 1-.31.508l-7.788 4.401a.6.6 0 0 1-.607.011.574.574 0 0 1-.295-.519v-8.808a.574.574 0 0 1 .295-.52.6.6 0 0 1 .607.012l7.789 4.401z" class="color-500"></path><path fill="#FFF" d="M8 13h40v27H8V13zM6 42h44v2H6v-2zm26.69-15.51l-7.788-4.402a.6.6 0 0 0-.607-.011.574.574 0 0 0-.295.519v8.808a.574.574 0 0 0 .295.52.6.6 0 0 0 .607-.012l7.789-4.401c.19-.101.309-.296.309-.508a.575.575 0 0 0-.31-.508v-.006z" class="french-vanilla-100"></path></g></svg>