<svg xmlns="http://www.w3.org/2000/svg" width="92" height="92" class="wd-applet wd-applet-onboarding" focusable="false" role="presentation" viewBox="0 0 92 92"><g fill="none" fill-rule="evenodd" class="wd-icon-container"><g fill="#0B77E3" fill-opacity=".2" class="animate-flood"><path d="M46 82c19.882 0 36-16.118 36-36S65.882 10 46 10 10 26.118 10 46s16.118 36 36 36z" class="color-400-alpha-20"></path></g><path fill="#40A0FF" d="M66 18v48h12V21.003A3 3 0 0 0 75.003 18H66z" class="color-300"></path><path fill="#005CB9" fill-rule="nonzero" d="M64 18a2 2 0 0 1 2-2h9.003A5 5 0 0 1 80 21.003V64a2 2 0 0 1-2 2H66a2 2 0 0 1-2-2V18zm2 0v46h12V21.003A3 3 0 0 0 75.003 18H66z" class="color-500"></path><path fill="#FFF" d="M17.997 22A2.997 2.997 0 0 0 15 24.994V75l4-5h55.993A4.003 4.003 0 0 0 79 65.99v-1.98A4.001 4.001 0 0 0 75.007 60h-9A1.006 1.006 0 0 1 65 59.003V22H17.997z" class="color-100"></path><path fill="#000" d="M78.171 65.273c.492-1.345-.5-5.15-4.164-5.273h-9A1.006 1.006 0 0 1 64 59.003V22h-4v40.007c0 .547.445.993.993.993h13.012a4.05 4.05 0 0 1 3.9 3.013c.115-.276.173-.483.266-.74z" class="color-shadow" opacity=".1"></path><path fill="#005CB9" fill-rule="nonzero" d="M73.993 72C77.31 72 80 68.311 80 65c0-3.313-2.682-7-5.993-7H66V22a2 2 0 0 0-2-2H16.997A5.002 5.002 0 0 0 12 25.005V73c0 1.89 2.38 2.726 3.562 1.25l3.4-2.25h55.031zM16.997 22H64v37.003c0 .544.45.997 1.007.997h9C76.213 60 78 62.79 78 65c0 2.205-1.794 5-4.007 5H18l-4 3V25.005A3.002 3.002 0 0 1 16.997 22z" class="color-500"></path><path fill="#005CB9" fill-rule="nonzero" d="M15.002 70H26a2 2 0 0 1 2 2v2a2 2 0 0 1-2 2H15.002A3.006 3.006 0 0 1 12 73c0-1.662 1.345-3 3.002-3zm0 2a.999.999 0 1 0 0 2H26v-2H15.002zM22.812 49.607a1 1 0 0 1-1.59-1.214c.002-.002.914-1.223 1.217-1.607a1 1 0 0 1 1.57 1.24c-.283.359-1.182 1.56-1.197 1.581zm4.609-4.52a1 1 0 0 1-.82-1.824 7.986 7.986 0 0 1 2.196-.63 1 1 0 0 1 .273 1.982c-.584.08-1.13.239-1.65.472zm6.126.203a1 1 0 0 1 .71-1.87l.283.111c.714.286 1.31.682 1.789 1.186a1 1 0 0 1-1.45 1.378 2.992 2.992 0 0 0-1.082-.707 15.286 15.286 0 0 0-.25-.098zm2.215 4.877a1 1 0 1 1 1.995.14 27.191 27.191 0 0 1-.237 2.064 1 1 0 0 1-1.978-.292c.107-.728.18-1.345.22-1.912zm-.965 6.895a1 1 0 0 1 1.992.183c-.065.709-.077 1.307-.031 1.82a1 1 0 1 1-1.992.177c-.058-.646-.044-1.36.031-2.18zm4.03 6.392a1 1 0 0 1 .208-1.989c.5.052 1.092.04 1.78-.04a1 1 0 1 1 .232 1.987c-.827.097-1.564.11-2.22.042zm7.403-1.494a1 1 0 0 1-.918-1.777 6.44 6.44 0 0 0 1.426-.983 1 1 0 1 1 1.357 1.47c-.53.489-1.15.92-1.865 1.29z" class="color-500"></path><path fill="#40A0FF" d="M15.002 72H26v2H15.002a.999.999 0 1 1 0-2zm8.013-43.37c0 6.335-1.755 6.497-4.084 16.827C16.603 55.787 30 70 30 70H16c-1.42 0-2 .296-2 .296V25.003C14 23.343 15.165 22 16.603 22c0 0-2.377 0 0 0h3.861a9.803 9.803 0 0 1 2.551 6.63z" class="color-300"></path><g fill="#40A0FF" class="animate-shrink"><path d="M49.5 57c4.694 0 8.5-2.239 8.5-5s-3.806-5-8.5-5-8.5 2.239-8.5 5 3.806 5 8.5 5z" class="color-300"></path></g><g class="animate-float"><path fill="#40A0FF" d="M49.155 49.846S43 43.087 43 38.086c0-5 3.024-7.086 6.485-7.086C52.947 31 56 33.364 56 38.086s-6.192 11.757-6.192 11.757a.421.421 0 0 1-.653.003zm.485-7.903a4 4 0 1 0 0-8 4 4 0 0 0 0 8z" class="color-300"></path><path fill="#005CB9" fill-rule="nonzero" d="M46.64 49.971a39.935 39.935 0 0 1-2.228-3.023c-1.114-1.675-2.008-3.323-2.606-4.912-.521-1.388-.806-2.705-.806-3.95C41 32.38 44.504 29 49.485 29 54.375 29 58 32.58 58 38.086c0 1.411-.398 2.938-1.116 4.586-.584 1.342-1.37 2.738-2.31 4.164a43.964 43.964 0 0 1-3.237 4.297 2.42 2.42 0 0 1-3.67.05c-.217-.24-.575-.654-1.028-1.212zm2.515-.125a.421.421 0 0 0 .653-.003S56 42.808 56 38.086C56 33.364 52.947 31 49.485 31 46.024 31 43 33.085 43 38.086s6.155 11.76 6.155 11.76zm.485-7.903a4 4 0 1 1 0-8 4 4 0 0 1 0 8zm0-2a2 2 0 1 0 0-4 2 2 0 0 0 0 4z" class="color-500"></path></g></g></svg>