<svg xmlns="http://www.w3.org/2000/svg" width="92" height="92" class="wd-applet wd-applet-opportunity-graph" focusable="false" role="presentation" viewBox="0 0 92 92"><g fill="none" fill-rule="evenodd" class="wd-icon-container"><g fill="#0B77E3" fill-opacity=".2" class="animate-flood"><path d="M46 82c19.882 0 36-16.118 36-36S65.882 10 46 10 10 26.118 10 46s16.118 36 36 36z" class="color-400-alpha-20"></path></g><g class="animate-grow"><path fill="#A6D2FF" d="M6 24.381A12.957 12.957 0 0 0 15 28c3.493 0 6.664-1.377 9-3.619V23h.624H24c0-1.659-1.34-3-2.992-3H8.992A2.993 2.993 0 0 0 6 23h-.624H6v1.381zm-1.913-2.314A12.94 12.94 0 0 1 2 15C2 7.82 7.819 2 15 2c7.18 0 13 5.819 13 13a12.94 12.94 0 0 1-2.087 7.067A4.995 4.995 0 0 0 21.008 18H8.992a4.992 4.992 0 0 0-4.905 4.067zM18.315 18h-6.632A5.997 5.997 0 0 1 9 12.998v-2.996A6.004 6.004 0 0 1 15 4c3.314 0 6 2.688 6 6.002v2.996A6 6 0 0 1 18.315 18z" class="color-200" transform="translate(31 31)"></path><path fill="#40A0FF" d="M6 24.381A12.957 12.957 0 0 0 15 28c3.493 0 6.664-1.377 9-3.619V23h.624H24c0-1.659-1.34-3-2.992-3H8.992A2.993 2.993 0 0 0 6 23h-.624H6v1.381z" class="color-300" transform="translate(31 31)"></path><rect width="9" height="12" x="10.5" y="5.5" fill="#FFF" class="color-100" rx="4.5" transform="translate(31 31)"></rect><path fill="#005CB9" fill-rule="nonzero" d="M0 15C0 6.715 6.715 0 15 0s15 6.715 15 15-6.715 15-15 15S0 23.285 0 15zm6 9.381A12.957 12.957 0 0 0 15 28c3.493 0 6.664-1.377 9-3.619V23h.624H24c0-1.659-1.34-3-2.992-3H8.992A2.993 2.993 0 0 0 6 23h-.624H6v1.381zm-1.913-2.314A4.992 4.992 0 0 1 8.992 18h12.016c2.439 0 4.47 1.75 4.905 4.067A12.94 12.94 0 0 0 28 15c0-7.181-5.82-13-13-13C7.819 2 2 7.82 2 15c0 2.606.767 5.033 2.087 7.067zM18.315 18h-6.632A5.997 5.997 0 0 1 9 12.998v-2.996A6.004 6.004 0 0 1 15 4c3.314 0 6 2.688 6 6.002v2.996A6 6 0 0 1 18.315 18zM11 10.002v2.996C11 15.208 12.79 17 15 17c2.205 0 4-1.792 4-4.002v-2.996C19 7.792 17.21 6 15 6c-2.205 0-4 1.792-4 4.002z" class="color-500" transform="translate(31 31)"></path></g><g class="animate-shrink"><path fill="#FFF" fill-rule="nonzero" d="M46 10c-3.17 0-6.282.41-9.282 1.207l4.925 14.246A21.08 21.08 0 0 1 46 25c1.578 0 3.133.174 4.644.516l4.92-14.232A36.04 36.04 0 0 0 46 10z" class="color-100"></path><path fill="#FFF" d="M46 82c5.002 0 9.855-1.02 14.331-2.965l-7.082-13.32A20.963 20.963 0 0 1 46 67c-.749 0-1.493-.04-2.23-.117l-2.35 14.829c1.51.191 3.039.288 4.58.288z" class="color-100"></path><path fill="#1880E4" fill-rule="nonzero" d="M69.529 56.273l-5.06-1.47c-1.439 2.905-3.798 5.905-6.372 7.868l2.645 4.278c3.485-2.54 7.006-6.772 8.787-10.676z" class="color-400"></path><path fill="#40A0FF" d="M56.571 27.858l1.738-4.763c4.612 2.534 7.487 5.63 9.803 9.221l-4.524 2.206c-2.207-3.17-3.731-4.61-7.017-6.664zm-27.347 5.509l-4.357-2.516a26.134 26.134 0 0 1 8.786-7.738l1.888 4.673a21.095 21.095 0 0 0-6.317 5.58zm50.896 1.138c.9 2.518 1.495 5.381 1.787 8.589.438 4.81-.614 10.045-.614 10.045L66.75 49.247c.166-1.067.25-2.152.25-3.247 0-1.234-.173-3.792-.833-5.872l13.953-5.623z" class="color-300"></path><path fill="#005CB9" fill-rule="nonzero" d="M46 10c-3.17 0-6.282.41-9.282 1.207l4.925 14.246A21.08 21.08 0 0 1 46 25c1.578 0 3.133.174 4.644.516l4.92-14.232A36.04 36.04 0 0 0 46 10zm12.132-.022l-6.21 17.963A18.984 18.984 0 0 0 46 27c-1.965 0-3.86.298-5.643.852L34.145 9.886A37.967 37.967 0 0 1 46 8c4.242 0 8.322.695 12.132 1.978zm-1.561 17.88c3.286 2.053 4.81 3.493 7.017 6.664l4.524-2.206c-2.316-3.59-5.191-6.687-9.803-9.221l-1.738 4.763zm.61-7.536a28.11 28.11 0 0 1 13.72 12.86l-8.095 3.947a19.08 19.08 0 0 0-8.712-8.324l3.088-8.483zM29.225 33.367a21.095 21.095 0 0 1 6.317-5.58l-1.888-4.674a26.134 26.134 0 0 0-8.786 7.738l4.357 2.516zm-7.195-1.845a28.113 28.113 0 0 1 12.674-11.15l3.374 8.354a19.08 19.08 0 0 0-8.25 7.298l-7.798-4.502zm59.254.34A37.896 37.896 0 0 1 84 46c0 3.32-.426 6.541-1.226 9.611l-18.358-4.919c.381-1.5.584-3.073.584-4.692a18.95 18.95 0 0 0-1.338-7.018l17.621-7.12zm-1.163 2.643l-13.953 5.623c.66 2.08.833 4.638.833 5.872 0 1.095-.084 2.18-.25 3.247l14.543 3.892s1.052-5.234.614-10.045c-.292-3.208-.888-6.07-1.787-8.589zm-11.26 21.89l-4.03-1.089a21.08 21.08 0 0 1-6.108 7.403l2.131 3.412c3.485-2.54 6.226-5.822 8.007-9.726zm-8.606 12.54l-4.24-6.785a19.067 19.067 0 0 0 7.683-9.221l7.86 2.123c-2.186 6.178-6.343 10.794-11.303 13.883zM46 82c5.002 0 9.855-1.02 14.331-2.965l-7.082-13.32A20.963 20.963 0 0 1 46 67c-.749 0-1.493-.04-2.23-.117l-2.35 14.829c1.51.191 3.039.288 4.58.288zm-6.869 1.38l2.975-18.78c1.257.262 2.56.4 3.894.4 2.92 0 5.686-.659 8.158-1.836l8.926 16.788A37.841 37.841 0 0 1 46 84a38.22 38.22 0 0 1-6.869-.62z" class="color-500"></path></g></g></svg>