<svg xmlns="http://www.w3.org/2000/svg" width="92" height="92" class="wd-applet wd-applet-pay" focusable="false" role="presentation" viewBox="0 0 92 92"><g fill="none" fill-rule="evenodd" class="wd-icon-container"><g fill="#0B77E3" fill-opacity=".2" class="animate-flood"><path d="M46 82c19.882 0 36-16.118 36-36S65.882 10 46 10 10 26.118 10 46s16.118 36 36 36z" class="color-400-alpha-20"></path></g><path fill="#40A0FF" d="M20.996 72a3.003 3.003 0 0 1-3.006-3.002l.008-30.996-.006-2.996A2.005 2.005 0 0 1 19.994 33h43.3c.551 0 .998.438.998 1.003V40h9.005a1 1 0 0 1 .995.993v30.014a1 1 0 0 1-1 .993H20.995z" class="color-300"></path><path fill="#000" d="M20.996 72a3.003 3.003 0 0 1-3.006-3.002l.008-30.996-.006-2.996A2.005 2.005 0 0 1 19.994 33h43.3c.551 0 .998.438.998 1.003V40h9.005a1 1 0 0 1 .995.993v30.014a1 1 0 0 1-1 .993H20.995z" class="color-shadow" opacity=".1"></path><path fill="#005CB9" fill-rule="nonzero" d="M16.007 35.666a4.045 4.045 0 0 1 0-.345v-.312C16.004 32.797 17.765 31 19.974 31h43.322a2.993 2.993 0 0 1 2.996 3.003V38h6.72a3.005 3.005 0 0 1 3.01 3v30c0 1.656-1.35 3-3.01 3H21.038c-2.765 0-5.03-2.24-5.03-5.008V35.666zm2 3.453v29.873c0 1.665 1.372 3.008 3.03 3.008h51.976c.553 0 1.01-.447 1.01-1V41c0-.553-.453-1-1.01-1H20.786a4.921 4.921 0 0 1-2.779-.881zm-.003-3.619c0 1.39 1.405 2.5 2.782 2.5h43.506v-4c0-.556-.446-1-.996-1H20.464c-1.376 0-2.46 1.12-2.46 2.5z" class="color-500"></path><g class="animate-float-right"><path fill="#40A0FF" d="M65.81 16.007a.534.534 0 0 0-.75-.04l-29.897 28.46a.532.532 0 0 0-.013.754l13.554 14.644c.203.22.545.231.749.04l30.402-28.622a.532.532 0 0 0 .013-.755L65.81 16.007zm-9.975-1.657L41.955 35.26 60.93 18.057l-5.095-3.707z" class="color-300"></path><path fill="#000" d="M55.988 14.721L42 35l19.368-16.904z" class="color-shadow" opacity=".1"></path><path fill="#FFF" d="M56.099 14.552l-2.506 3.374s3.95 2.035 6.044-.923l-3.538-2.451zM37.896 40.908l-3.604 3.276 3.375 3.73c2.946-2.716.23-7.006.23-7.006zM48.51 59l3.425-3.261s-3.71-2.884-6.657-.167C45.247 55.538 48.51 59 48.51 59zm27.667-25.054l3.527-3.153s-3.263-3.461-3.23-3.428c-2.946 2.717-.297 6.581-.297 6.581zm-10.78-18.435l-3.427 3.261s3.712 2.884 6.657.166l-3.23-3.427zm-4.103 17.777c-1.993-2.114-6.202-2.003-8.37 0-2.171 2.002-1.993 6.413 0 8.527 1.993 2.115 5.712 2.002 7.883 0 2.169-2.003 2.48-6.413.487-8.527z" class="color-100"></path><path fill="#005CB9" d="M52.95 41.281c-2.055-2.205-1.908-5.687.33-7.775 2.236-2.089 5.714-1.993 7.768.212 2.054 2.207 1.906 5.687-.33 7.776-2.237 2.088-5.715 1.993-7.769-.213zm9.562-8.926c-2.813-3.019-7.558-3.149-10.597-.312-3.04 2.835-3.241 7.582-.427 10.601 2.813 3.02 7.558 3.15 10.597.314 3.04-2.837 3.241-7.583.427-10.603zm-.427-15.967l-3.879-2.703a2.905 2.905 0 0 0-4.046.718L35.17 41.281l-1.295 1.175a2.78 2.78 0 0 0-.133 3.915l12.803 13.75a2.77 2.77 0 0 0 3.91.138L79.66 32.6a2.78 2.78 0 0 0 .135-3.915L67.453 15.208a2.768 2.768 0 0 0-3.91-.14l-1.458 1.32zm.56 2.278l2.427-2.278a.534.534 0 0 1 .747.03l2.199 2.325c-1.483 1.356-3.911 1.507-5.373-.077zM76.144 33.29c-1.304-1.426-1.704-4.045.348-5.435l2.13 2.311a.54.54 0 0 1-.023.748l-2.455 2.376zM48.928 58.621a.536.536 0 0 1-.747-.029l-2.03-2.181c1.48-1.375 3.705-1.311 5.04.096l-2.263 2.114zM37.834 41.824c1.486 1.466 1.4 4.092-.277 5.313l-2.18-2.295a.538.538 0 0 1 .024-.747l2.433-2.27zm23.494-21.978c1.712 2.198 5.758 2.245 7.935.31l5.934 6.331c-2.4 2.576-2.236 5.722-.321 7.976L52.67 55.208c-1.93-1.985-5.027-2.452-7.849-.23l-6.125-6.567c2.308-1.86 2.69-5.538.531-7.879l22.101-20.686zm-8.13-.523c1.483 1.002 3.589 1.39 5.16.803L42.162 34.908 53.2 19.323zm2.491-3.71a.671.671 0 0 1 .93-.168l2.772 1.898c-1.204 1.5-3.877 1.224-5.23.334l1.528-2.064z" class="color-500"></path></g><path fill="#A6D2FF" d="M74 52h6.294c.551 0 .998.453.998.997v6.006c0 .55-.447.997-.998.997H74v10.995c0 .555-.45 1.005-.996 1.005h-52.02a2.996 2.996 0 0 1-2.99-3.002V38l12.3 1.013H74V52z" class="color-200"></path><path fill="#005CB9" fill-rule="nonzero" d="M76 50h4c1.655 0 3.011 1.349 3.011 2.997v6.006C83.011 60.657 81.645 62 80 62h-9.99a3.01 3.01 0 0 1-3.007-2.997v-6.006c0-1.654 1.362-2.997 3.007-2.997H74v-9.002A.993.993 0 0 0 73 40H20.028a3.993 3.993 0 0 1-3.993-4l2 .008A1.99 1.99 0 0 0 20.028 38H73c1.663 0 3 1.34 3 2.998V50zm-6.997 2.997v6.006c0 .544.458.997 1.007.997H80c.54 0 1.011-.446 1.011-.997v-6.006c0-.544-.461-.997-1.011-.997h-9.99c-.54 0-1.007.446-1.007.997z" class="color-500"></path><circle cx="75" cy="56" r="2" fill="#005CB9" class="color-500"></circle><path fill="#0B77E3" d="M68 69.5c0-.276.215-.5.49-.5h3.02a.5.5 0 0 1 .49.5c0 .276-.215.5-.49.5h-3.02a.5.5 0 0 1-.49-.5zm-8 0c0-.276.215-.5.49-.5h3.02a.5.5 0 0 1 .49.5c0 .276-.215.5-.49.5h-3.02a.5.5 0 0 1-.49-.5zm-8 0c0-.276.215-.5.49-.5h3.02a.5.5 0 0 1 .49.5c0 .276-.215.5-.49.5h-3.02a.5.5 0 0 1-.49-.5zm-8 0c0-.276.215-.5.49-.5h3.02a.5.5 0 0 1 .49.5c0 .276-.215.5-.49.5h-3.02a.5.5 0 0 1-.49-.5zm-8 0c0-.276.215-.5.49-.5h3.02a.5.5 0 0 1 .49.5c0 .276-.215.5-.49.5h-3.02a.5.5 0 0 1-.49-.5zm-8 0c0-.276.215-.5.49-.5h3.02a.5.5 0 0 1 .49.5c0 .276-.215.5-.49.5h-3.02a.5.5 0 0 1-.49-.5zm-7.97-.608a.492.492 0 0 1 .57-.407l2.973.524a.5.5 0 0 1 .397.578.492.492 0 0 1-.57.407l-2.973-.524a.5.5 0 0 1-.397-.578zM68 42.5c0-.276.215-.5.49-.5h3.02a.5.5 0 0 1 .49.5c0 .276-.215.5-.49.5h-3.02a.5.5 0 0 1-.49-.5zm-8 0c0-.276.215-.5.49-.5h3.02a.5.5 0 0 1 .49.5c0 .276-.215.5-.49.5h-3.02a.5.5 0 0 1-.49-.5zm-8 0c0-.276.215-.5.49-.5h3.02a.5.5 0 0 1 .49.5c0 .276-.215.5-.49.5h-3.02a.5.5 0 0 1-.49-.5zm-8 0c0-.276.215-.5.49-.5h3.02a.5.5 0 0 1 .49.5c0 .276-.215.5-.49.5h-3.02a.5.5 0 0 1-.49-.5zm-8 0c0-.276.215-.5.49-.5h3.02a.5.5 0 0 1 .49.5c0 .276-.215.5-.49.5h-3.02a.5.5 0 0 1-.49-.5zm-8 0c0-.276.215-.5.49-.5h3.02a.5.5 0 0 1 .49.5c0 .276-.215.5-.49.5h-3.02a.5.5 0 0 1-.49-.5zm-7.97-.608a.492.492 0 0 1 .57-.407l2.973.524a.5.5 0 0 1 .397.578.492.492 0 0 1-.57.407l-2.973-.524a.5.5 0 0 1-.397-.578zM28 34.5c0-.276.215-.5.49-.5h3.02a.5.5 0 0 1 .49.5c0 .276-.215.5-.49.5h-3.02a.5.5 0 0 1-.49-.5zm-7.97.637a.492.492 0 0 1 .397-.578l2.973-.524a.5.5 0 0 1 .57.407.492.492 0 0 1-.397.578l-2.973.524a.5.5 0 0 1-.57-.407z" class="color-400"></path></g></svg>