<svg xmlns="http://www.w3.org/2000/svg" width="92" height="92" class="wd-applet wd-applet-personal-info" focusable="false" role="presentation" viewBox="0 0 92 92"><g fill="none" fill-rule="evenodd" class="wd-icon-container"><g fill="#0B77E3" fill-opacity=".2" class="animate-flood"><path d="M46 82c19.882 0 36-16.118 36-36S65.882 10 46 10 10 26.118 10 46s16.118 36 36 36z" class="color-400-alpha-20"></path></g><g class="animate-sink"><rect width="60" height="12" fill="#40A0FF" class="color-300" rx="3" transform="translate(16 21)"></rect><path fill="#005CB9" fill-rule="nonzero" d="M2 3.007v5.986c0 .56.446 1.007.996 1.007h54.008c.55 0 .996-.447.996-1.007V3.007A.999.999 0 0 0 57.004 2H2.996A.999.999 0 0 0 2 3.007zm-2 0A2.999 2.999 0 0 1 2.996 0h54.008A2.999 2.999 0 0 1 60 3.007v5.986A2.999 2.999 0 0 1 57.004 12H2.996A2.999 2.999 0 0 1 0 8.993V3.007z" class="color-500" transform="translate(16 21)"></path></g><g class="animate-sink-less"><rect width="70" height="20" fill="#A6D2FF" class="color-200" rx="3" transform="translate(11 26)"></rect><path fill="#005CB9" fill-rule="nonzero" d="M2 2.994v14.012c0 .545.45.994 1.008.994h63.984A.994.994 0 0 0 68 17.006V2.994C68 2.45 67.55 2 66.992 2H3.008A.994.994 0 0 0 2 2.994zm-2 0A2.994 2.994 0 0 1 3.008 0h63.984A3.003 3.003 0 0 1 70 2.994v14.012A2.994 2.994 0 0 1 66.992 20H3.008A3.003 3.003 0 0 1 0 17.006V2.994z" class="color-500" transform="translate(11 26)"></path></g><g class="animate-float"><rect width="80" height="40" fill="#FFF" class="color-100" rx="3" transform="translate(6 31)"></rect><path fill="#40A0FF" d="M59 24.999v1.002a.992.992 0 0 1-.992.999H39.992c-.537 0-.992-.447-.992-.999v-1.002c0-.556.444-.999.992-.999h18.016c.537 0 .992.447.992.999zm-16 5v1.002c0 .556-.452.999-1.01.999h-1.98a.999.999 0 0 1-1.01-.999v-1.002c0-.556.452-.999 1.01-.999h1.98a.999.999 0 0 1 1.01.999zm24 0v1.002a.998.998 0 0 1-1.002.999H46.002A.995.995 0 0 1 45 31.001v-1.002A.998.998 0 0 1 46.002 29h19.996a.995.995 0 0 1 1.002.999zm3-5v1.002a.995.995 0 0 1-.998.999h-7.004a.998.998 0 0 1-.998-.999v-1.002c0-.556.447-.999.998-.999h7.004c.552 0 .998.447.998.999z" class="color-300" transform="translate(6 31)"></path><rect width="30" height="30" x="5" y="5" fill="#A6D2FF" class="color-200" rx="4" transform="translate(6 31)"></rect><path fill="#40A0FF" d="M15 25h10a4 4 0 0 1 4 4v5H11v-5a4 4 0 0 1 4-4z" class="color-300" transform="translate(6 31)"></path><path fill="#000" d="M11 31h18v2H11z" class="color-shadow" opacity=".1" transform="translate(6 31)"></path><rect width="6" height="9" x="17" y="14" fill="#FFF" class="color-100" rx="3" transform="translate(6 31)"></rect><path fill="#005CB9" fill-rule="nonzero" d="M2 3.007v33.986c0 .56.444 1.007.99 1.007h74.02c.544 0 .99-.448.99-1.007V3.007A.996.996 0 0 0 77.01 2H2.99A.998.998 0 0 0 2 3.007zm-2 0A2.998 2.998 0 0 1 2.99 0h74.02A2.996 2.996 0 0 1 80 3.007v33.986A2.998 2.998 0 0 1 77.01 40H2.99A2.996 2.996 0 0 1 0 36.993V3.007zm57 10.992a.996.996 0 0 0-.993-.999H39.993a.993.993 0 0 0-.993.999v1.002c0 .552.445.999.993.999h16.014a.993.993 0 0 0 .993-.999v-1.002zm10-5A.994.994 0 0 0 66.003 8H39.997a.995.995 0 0 0-.997.999v1.002c0 .552.44.999.997.999h26.006c.55 0 .997-.443.997-.999V8.999zm-60 0v22.002C7 32.107 7.894 33 9 33h22c1.107 0 2-.894 2-2V9c0-1.107-.894-2-2-2H9c-1.107 0-2 .894-2 2zM5 9C5 6.791 6.787 5 9 5h22c2.21 0 4 1.787 4 4v22c0 2.21-1.787 4-4 4H9c-2.21 0-4-1.787-4-4V9zM12 29.5V33h16v-3.5c0-1.93-1.563-3.5-3.491-3.5H15.49A3.496 3.496 0 0 0 12 29.5zm-2 0c0-3.036 2.458-5.5 5.491-5.5h9.018A5.498 5.498 0 0 1 30 29.5V35H10v-5.5zm7-12.503v3.006a3 3 0 0 0 6 0v-3.006a3 3 0 0 0-6 0zm-2 0a5 5 0 0 1 10 0v3.006a5 5 0 0 1-10 0v-3.006z" class="color-500" transform="translate(6 31)"></path></g></g></svg>