<svg xmlns="http://www.w3.org/2000/svg" width="56" height="56" class="wd-accent-desktop-gear wd-accent" focusable="false" role="presentation" viewBox="0 0 56 56"><g fill="none" fill-rule="evenodd" class="wd-icon-container"><path fill="#005DBA" fill-rule="nonzero" d="M33 40v6h3a1 1 0 0 1 0 2H20a1 1 0 0 1 0-2h3v-6H6a2 2 0 0 1-2-2V8a2 2 0 0 1 2-2h44a2 2 0 0 1 2 2v30a2 2 0 0 1-2 2H33zM6 8v24h44V8H6zm31.35 11.313a9.075 9.075 0 0 1 0 2.374l-.087.663-.645.172A3.364 3.364 0 0 0 34.57 24.1a3.364 3.364 0 0 0-.346 2.545l.17.643-.527.404a9.233 9.233 0 0 1-2.157 1.236l-.62.25-.468-.476a3.364 3.364 0 0 0-2.408-1.003c-.921 0-1.78.366-2.407 1.003l-.469.477-.62-.251a9.233 9.233 0 0 1-2.156-1.236l-.527-.404.17-.643c.223-.85.106-1.76-.347-2.545a3.364 3.364 0 0 0-2.047-1.577l-.646-.172-.087-.663a9.075 9.075 0 0 1 0-2.374l.087-.663.646-.172a3.364 3.364 0 0 0 2.047-1.577c.453-.785.57-1.694.346-2.545l-.169-.643.527-.404a9.233 9.233 0 0 1 2.156-1.236l.62-.25.469.476a3.364 3.364 0 0 0 2.407 1.003c.922 0 1.78-.366 2.408-1.003l.469-.477.62.251c.772.314 1.497.73 2.156 1.236l.526.404-.169.643c-.223.85-.107 1.76.346 2.545a3.364 3.364 0 0 0 2.048 1.577l.645.172.088.663zM32.839 17.9a5.369 5.369 0 0 1-.683-3.354 7.234 7.234 0 0 0-.644-.369 5.369 5.369 0 0 1-3.297 1.124 5.369 5.369 0 0 1-3.296-1.124 7.234 7.234 0 0 0-.645.37 5.369 5.369 0 0 1-.683 3.353 5.369 5.369 0 0 1-2.583 2.277 7.134 7.134 0 0 0 0 .644 5.369 5.369 0 0 1 2.583 2.277 5.369 5.369 0 0 1 .683 3.354c.209.134.424.257.645.369a5.369 5.369 0 0 1 3.296-1.124c1.215 0 2.368.404 3.297 1.124.22-.112.436-.235.644-.37a5.369 5.369 0 0 1 .683-3.353 5.369 5.369 0 0 1 2.583-2.277 7.134 7.134 0 0 0 0-.644 5.369 5.369 0 0 1-2.583-2.277zm-4.624 6.46c-2.15 0-3.899-1.726-3.899-3.861 0-2.135 1.749-3.86 3.9-3.86 2.15 0 3.898 1.725 3.898 3.86s-1.748 3.86-3.899 3.86zm0-2c1.052 0 1.9-.836 1.9-1.861s-.848-1.86-1.9-1.86-1.899.835-1.899 1.86c0 1.025.847 1.86 1.9 1.86zM6 34v4h44v-4H6zm19 6v6h6v-6h-6z" class="color-500"></path><path fill="#FFF" d="M6 8h44v24H6V8zm31.35 11.313l-.087-.663-.645-.172A3.364 3.364 0 0 1 34.57 16.9a3.364 3.364 0 0 1-.346-2.545l.17-.643-.527-.404a9.233 9.233 0 0 0-2.157-1.236l-.62-.25-.468.476a3.364 3.364 0 0 1-2.408 1.003c-.921 0-1.78-.366-2.407-1.003l-.469-.477-.62.251a9.233 9.233 0 0 0-2.156 1.236l-.527.404.17.643c.223.85.106 1.76-.347 2.545a3.364 3.364 0 0 1-2.047 1.577l-.646.172-.087.663a9.075 9.075 0 0 0 0 2.374l.087.663.646.172a3.364 3.364 0 0 1 2.047 1.577c.453.785.57 1.694.346 2.545l-.169.643.527.404a9.233 9.233 0 0 0 2.156 1.236l.62.25.469-.476a3.364 3.364 0 0 1 2.407-1.003c.922 0 1.78.366 2.408 1.003l.469.477.62-.251a9.233 9.233 0 0 0 2.156-1.236l.526-.404-.169-.643a3.364 3.364 0 0 1 .346-2.545 3.364 3.364 0 0 1 2.048-1.577l.645-.172.088-.663a9.075 9.075 0 0 0 0-2.374zM32.839 17.9a5.369 5.369 0 0 0 2.583 2.277 7.134 7.134 0 0 1 0 .644 5.369 5.369 0 0 0-2.583 2.277 5.369 5.369 0 0 0-.683 3.354 7.234 7.234 0 0 1-.644.369 5.369 5.369 0 0 0-3.297-1.124 5.369 5.369 0 0 0-3.296 1.124 7.234 7.234 0 0 1-.645-.37 5.369 5.369 0 0 0-.683-3.353 5.369 5.369 0 0 0-2.583-2.277 7.134 7.134 0 0 1 0-.644 5.369 5.369 0 0 0 2.583-2.277 5.369 5.369 0 0 0 .683-3.354c.209-.134.424-.257.645-.369a5.369 5.369 0 0 0 3.296 1.124 5.369 5.369 0 0 0 3.297-1.124c.22.112.436.235.644.37a5.369 5.369 0 0 0 .683 3.353zm-4.624 6.46c2.15 0 3.9-1.726 3.9-3.861 0-2.135-1.75-3.86-3.9-3.86s-3.899 1.725-3.899 3.86 1.749 3.86 3.9 3.86zm0-2c-1.052 0-1.899-.836-1.899-1.861s.847-1.86 1.9-1.86c1.051 0 1.898.835 1.898 1.86 0 1.025-.847 1.86-1.899 1.86zM6 34h44v4H6v-4zm19 6h6v6h-6v-6z" class="french-vanilla-100"></path></g></svg>