<svg xmlns="http://www.w3.org/2000/svg" width="56" height="56" fill="none" class="wd-accent-people-analytics wd-accent" focusable="false" role="presentation" viewBox="0 0 56 56"><g class="wd-icon-container"><path fill="#005CB9" fill-rule="evenodd" d="M24.795 20.185l-1.543-2.469 3.456-1.675 3.365 2.153-2.153 2.296A3.982 3.982 0 0 0 26 20c-.42 0-.825.065-1.205.185zm-1.696 1.06l-1.657-2.651-2.837 1.376.404 3.03h3.117c.172-.668.512-1.27.973-1.754zm1.633-6.469l-2.546 1.235-2.984-4.774 5.53 3.539zm6.732 1.934l-2.645-1.693 7.758-3.761-5.113 5.454zm-4.62-2.958L36.644 9H19.874a3.98 3.98 0 0 1-.072.246l7.041 4.506zM40 11.874a3.977 3.977 0 0 1-.92-.364l-5.903 6.296 5.1 3.264A3.993 3.993 0 0 1 40 20.126v-8.252zm2 8.252A4.002 4.002 0 0 1 41 28a3.985 3.985 0 0 1-2.668-1.02l-14.554 9.703a4 4 0 1 1-7.058-.973l-6.958-8.118a4 4 0 1 1-.924-7.504l4.536-9.071A4 4 0 1 1 19.873 7h17.252A4.002 4.002 0 0 1 45 8a4.002 4.002 0 0 1-3 3.874v8.252zm-23.674-2.244l2.05-.994-2.774-4.438.724 5.432zM12.355 23l4.355-2.111L16.99 23h-4.636zm10.313 12.02l14.554-9.703a3.999 3.999 0 0 1-.096-.317h-7.252a4.002 4.002 0 0 1-4.48 2.954l-2.95 6.88a4 4 0 0 1 .224.186zM11.28 26.29l6.958 8.118c.085-.042.171-.08.259-.116L17.257 25h-5.383c-.12.469-.324.904-.594 1.29zm-.653-5.307c.15.132.292.275.422.427l5.382-2.61-.91-6.828a3.991 3.991 0 0 1-.359-.06l-4.536 9.071zm18.752.875l2.407-2.568 5.412 3.464c-.027.08-.05.163-.072.246h-7.252a3.978 3.978 0 0 0-.495-1.142zM22.126 25h-2.85l1.203 9.028c.043.005.085.011.128.018l2.948-6.88A4.003 4.003 0 0 1 22.126 25zM50 41c0 2.143-.75 4.112-2 5.657V46a3 3 0 0 0-3-3h-1.354A3.99 3.99 0 0 0 45 40v-2a4 4 0 0 0-8 0v2a3.99 3.99 0 0 0 1.354 3H37a3 3 0 0 0-3 3v.657A9 9 0 1 1 50 41zm2 0c0 3.417-1.558 6.47-4.003 8.488A10.954 10.954 0 0 1 41 52c-1.8 0-3.5-.433-5-1.2l-.008-.003A11.017 11.017 0 0 1 34 49.486c-2.443-2.018-4-5.07-4-8.486 0-6.075 4.925-11 11-11s11 4.925 11 11zm-6 5v2.484A8.959 8.959 0 0 1 41 50c-1.85 0-3.57-.558-5-1.516V46a1 1 0 0 1 1-1h8a1 1 0 0 1 1 1zm-3-8v2a2 2 0 1 1-4 0v-2a2 2 0 1 1 4 0z" class="color-500" clip-rule="evenodd"></path><path fill="#fff" fill-rule="evenodd" d="M16 10a2 2 0 1 0 0-4 2 2 0 0 0 0 4zM8 26a2 2 0 1 0 0-4 2 2 0 0 0 0 4zm35-2a2 2 0 1 1-4 0 2 2 0 0 1 4 0zm-2-14a2 2 0 1 0 0-4 2 2 0 0 0 0 4zM28 24a2 2 0 1 1-4 0 2 2 0 0 1 4 0zm-8 16a2 2 0 1 0 0-4 2 2 0 0 0 0 4zm21 10c1.85 0 3.57-.558 5-1.516V46a1 1 0 0 0-1-1h-8a1 1 0 0 0-1 1v2.484A8.959 8.959 0 0 0 41 50zm9-9c0 2.143-.75 4.112-2 5.657V46a3 3 0 0 0-3-3h-1.354A3.99 3.99 0 0 0 45 40v-2a4 4 0 0 0-8 0v2a3.99 3.99 0 0 0 1.354 3H37a3 3 0 0 0-3 3v.657A9 9 0 1 1 50 41zm-7-1v-2a2 2 0 1 0-4 0v2a2 2 0 1 0 4 0z" class="french-vanilla-100" clip-rule="evenodd"></path></g></svg>