<svg xmlns="http://www.w3.org/2000/svg" width="92" height="92" class="wd-applet wd-applet-talent" focusable="false" role="presentation" viewBox="0 0 92 92"><g fill="none" fill-rule="evenodd" class="wd-icon-container"><g fill="#0B77E3" fill-opacity=".2" class="animate-flood"><path d="M46 82c19.882 0 36-16.118 36-36S65.882 10 46 10 10 26.118 10 46s16.118 36 36 36z" class="color-400-alpha-20"></path></g><g class="animate-shrink"><path fill="#FFF" d="M25 25.507C25 18.047 31.043 12 38.5 12 45.956 12 52 18.046 52 25.507v8.986C52 41.953 45.957 48 38.5 48 31.044 48 25 41.954 25 34.493v-8.986z" class="color-100"></path><path fill="#A6D2FF" d="M14 61c0-6.075 4.923-11 10.997-11h27.006C58.077 50 63 54.924 63 61v11H14V61z" class="color-200"></path><path fill="#005CB9" fill-rule="nonzero" d="M46.12 48h5.883C59.182 48 65 53.82 65 61v13H12V61c0-7.18 5.818-13 12.997-13h5.883C26.175 45.338 23 40.287 23 34.493v-8.986C23 16.943 29.938 10 38.5 10 47.061 10 54 16.942 54 25.507v8.986c0 5.793-3.175 10.845-7.88 13.507zM25 25.507v8.986C25 41.954 31.044 48 38.5 48 45.957 48 52 41.952 52 34.493v-8.986C52 18.046 45.956 12 38.5 12 31.043 12 25 18.048 25 25.507zM14 61v11h49V61c0-6.076-4.923-11-10.997-11H24.997C18.923 50 14 54.925 14 61z" class="color-500"></path><path fill="#000" d="M58.46 49.714A12.995 12.995 0 0 1 65 61v12.672l-1.666-.879c.101.054.23.054.33.001L61.379 74h-9.841l.518-7a.283.283 0 0 0 .08.243l-6.858-6.917c-2.138-2.776-.405-5.837 2.406-6.24l9.51-1.463a.336.336 0 0 0-.253.179l1.52-3.088z" class="color-shadow" opacity=".1"></path></g><g class="animate-grow"><path fill="#40A0FF" d="M67.267 73.024a1.634 1.634 0 0 0-1.534 0l-8.546 4.508c-.49.258-.815.023-.728-.518l1.57-9.697a1.716 1.716 0 0 0-.473-1.481l-6.859-6.918c-.385-.389-.246-.773.29-.856l9.507-1.462a1.665 1.665 0 0 0 1.24-.915l4.326-8.791c.243-.494.639-.49.88 0l4.326 8.79c.242.494.705.835 1.24.916l9.507 1.462c.545.084.672.47.29.856l-6.86 6.918c-.383.386-.56.938-.473 1.48l1.57 9.698c.089.545-.233.779-.727.518l-8.546-4.508z" class="color-300"></path><path fill="#005CB9" fill-rule="nonzero" d="M67.267 73.024l8.546 4.508c.494.26.816.027.728-.518l-1.57-9.697a1.716 1.716 0 0 1 .473-1.481l6.859-6.918c.382-.386.255-.772-.29-.856L72.506 56.6a1.665 1.665 0 0 1-1.24-.915l-4.326-8.791c-.241-.49-.637-.494-.88 0l-4.326 8.79a1.665 1.665 0 0 1-1.24.916l-9.507 1.462c-.536.083-.675.467-.29.856l6.86 6.918c.383.386.56.938.473 1.48l-1.57 9.698c-.088.54.237.776.727.518l8.546-4.508a1.634 1.634 0 0 1 1.534 0zm-.602 1.77l-8.545 4.507c-1.946 1.027-3.987-.434-3.635-2.607L56.055 67a.283.283 0 0 0 .08.244l-6.858-6.917c-1.546-1.56-.732-3.912 1.406-4.24l9.51-1.463a.336.336 0 0 0-.253.179l4.326-8.791c.976-1.985 3.495-1.978 4.468 0l4.325 8.79a.334.334 0 0 0-.248-.177l9.506 1.462c2.153.33 2.944 2.688 1.406 4.24l-6.86 6.92a.285.285 0 0 0 .082-.249l1.57 9.697c.352 2.177-1.684 3.636-3.635 2.607l-8.546-4.508c.101.054.23.054.33.001z" class="color-500"></path></g></g></svg>