<svg xmlns="http://www.w3.org/2000/svg" width="92" height="92" class="wd-applet wd-applet-quad" focusable="false" role="presentation" viewBox="0 0 92 92"><g fill="none" fill-rule="evenodd" class="wd-icon-container"><g fill="#0B77E3" fill-opacity=".2" class="animate-flood"><circle cx="36" cy="36" r="36" class="color-400-alpha-20" transform="translate(10 10)"></circle></g><g class="animate-sink"><path fill="#FFF" d="M46.731 51.303l10.966 10.966a1.034 1.034 0 0 1 0 1.462L46.731 74.697a1.034 1.034 0 0 1-1.462 0L34.303 63.731a1.034 1.034 0 0 1 0-1.462l10.966-10.966a1.034 1.034 0 0 1 1.462 0z" class="color-100"></path><path fill="#005CB9" fill-rule="nonzero" d="M46.731 51.303a1.034 1.034 0 0 0-1.462 0L34.303 62.269a1.034 1.034 0 0 0 0 1.462l10.966 10.966a1.034 1.034 0 0 0 1.462 0l10.966-10.966a1.034 1.034 0 0 0 0-1.462L46.731 51.303zm1.414-1.414l10.966 10.966a3.034 3.034 0 0 1 0 4.29L48.145 76.111a3.034 3.034 0 0 1-4.29 0L32.889 65.145a3.034 3.034 0 0 1 0-4.29l10.966-10.966a3.034 3.034 0 0 1 4.29 0z" class="color-500"></path></g><g class="animate-left"><path fill="#FFF" d="M29.731 34.303l10.966 10.966a1.034 1.034 0 0 1 0 1.462L29.731 57.697a1.034 1.034 0 0 1-1.462 0L17.303 46.731a1.034 1.034 0 0 1 0-1.462l10.966-10.966a1.034 1.034 0 0 1 1.462 0z" class="color-100"></path><path fill="#005CB9" d="M31.145 32.889l10.966 10.966a3.034 3.034 0 0 1 0 4.29L31.145 59.111a3.034 3.034 0 0 1-4.29 0L15.889 48.145a3.034 3.034 0 0 1 0-4.29l10.966-10.966a3.034 3.034 0 0 1 4.29 0zm-1.414 1.414a1.034 1.034 0 0 0-1.462 0L17.303 45.269a1.034 1.034 0 0 0 0 1.462l10.966 10.966a1.034 1.034 0 0 0 1.462 0l10.966-10.966a1.034 1.034 0 0 0 0-1.462L29.731 34.303z" class="color-500"></path></g><g class="animate-right"><path fill="#FFF" d="M63.731 34.303l10.966 10.966a1.034 1.034 0 0 1 0 1.462L63.731 57.697a1.034 1.034 0 0 1-1.462 0L51.303 46.731a1.034 1.034 0 0 1 0-1.462l10.966-10.966a1.034 1.034 0 0 1 1.462 0z" class="color-100"></path><path fill="#005CB9" d="M65.145 32.889l10.966 10.966a3.034 3.034 0 0 1 0 4.29L65.145 59.111a3.034 3.034 0 0 1-4.29 0L49.889 48.145a3.034 3.034 0 0 1 0-4.29l10.966-10.966a3.034 3.034 0 0 1 4.29 0zm-1.414 1.414a1.034 1.034 0 0 0-1.462 0L51.303 45.269a1.034 1.034 0 0 0 0 1.462l10.966 10.966a1.034 1.034 0 0 0 1.462 0l10.966-10.966a1.034 1.034 0 0 0 0-1.462L63.731 34.303z" class="color-500"></path></g><g class="animate-float"><path fill="#FFF" d="M46.731 17.303l10.966 10.966a1.034 1.034 0 0 1 0 1.462L46.731 40.697a1.034 1.034 0 0 1-1.462 0L34.303 29.731a1.034 1.034 0 0 1 0-1.462l10.966-10.966a1.034 1.034 0 0 1 1.462 0z" class="color-100"></path><path fill="#005CB9" d="M48.145 15.889l10.966 10.966a3.034 3.034 0 0 1 0 4.29L48.145 42.111a3.034 3.034 0 0 1-4.29 0L32.889 31.145a3.034 3.034 0 0 1 0-4.29l10.966-10.966a3.034 3.034 0 0 1 4.29 0zm-1.414 1.414a1.034 1.034 0 0 0-1.462 0L34.303 28.269a1.034 1.034 0 0 0 0 1.462l10.966 10.966a1.034 1.034 0 0 0 1.462 0l10.966-10.966a1.034 1.034 0 0 0 0-1.462L46.731 17.303z" class="color-500"></path></g></g></svg>