<svg xmlns="http://www.w3.org/2000/svg" width="56" height="56" fill="none" class="wd-accent-workday-assistant wd-accent" focusable="false" role="presentation" viewBox="0 0 56 56"><g class="wd-icon-container"><path fill="#0875E1" fill-rule="evenodd" d="M17.417 47.286l.56.287A21.89 21.89 0 0 0 28 49.986c12.142 0 21.986-9.843 21.986-21.986S40.143 6.014 28 6.014 6.014 15.857 6.014 28c0 3.493.815 6.866 2.354 9.908l.3.592-.112.654L7.052 48a.498.498 0 0 0 .556.577l9.186-1.209.623-.082zM7.87 50.574a2.512 2.512 0 0 1-2.804-2.912l1.504-8.845A23.906 23.906 0 0 1 4 28C4 14.745 14.745 4 28 4s24 10.745 24 24-10.745 24-24 24c-3.858 0-7.587-.913-10.943-2.635L7.87 50.574zM37.51 28h-1.827a.552.552 0 0 0-.544.405l-2.457 9.552c-.034 0-2.708-9.545-2.708-9.545a.584.584 0 0 0-.57-.412h-2.832a.555.555 0 0 0-.54.391l-2.694 9.607c-.1-.06-2.478-9.593-2.478-9.593a.552.552 0 0 0-.543-.405H18.49c-.366 0-.634.325-.541.657L21.3 40.7c.064.23.283.39.535.392l2.765-.004a.553.553 0 0 0 .54-.389c.472-1.669 2.801-10.109 2.801-10.109s2.447 8.44 2.92 10.109c.064.23.285.388.539.389l2.765.004a.553.553 0 0 0 .535-.392l3.351-12.043c.093-.332-.174-.656-.54-.656zm-18.608-4.076c.12.032.24.048.358.048.581 0 1.115-.376 1.279-.949.02-.074.043-.147.067-.22 1.017-3.17 3.99-5.3 7.397-5.3 3.403 0 6.374 2.126 7.395 5.292.023.07.044.141.065.212.2.69.935 1.09 1.64.894a1.293 1.293 0 0 0 .916-1.601 9.868 9.868 0 0 0-.087-.284c-1.37-4.25-5.36-7.107-9.93-7.107-4.574 0-8.566 2.86-9.932 7.119a9.65 9.65 0 0 0-.09.299c-.198.69.215 1.405.922 1.597z" class="color-500" clip-rule="evenodd"></path><path fill="#fff" fill-rule="evenodd" d="M17.977 47.574l-.56-.287-9.81 1.29A.498.498 0 0 1 7.053 48l1.615-9.5-.3-.592A21.892 21.892 0 0 1 6.015 28C6.014 15.857 15.858 6.014 28 6.014c12.143 0 21.986 9.843 21.986 21.986S40.143 49.986 28 49.986a21.89 21.89 0 0 1-10.023-2.412zM35.683 28h1.828c.366 0 .633.324.54.656L34.7 40.7a.553.553 0 0 1-.535.392l-2.765-.004a.553.553 0 0 1-.54-.389 3963.65 3963.65 0 0 0-2.919-10.109s-2.329 8.44-2.801 10.109a.553.553 0 0 1-.54.389l-2.765.004a.553.553 0 0 1-.535-.392L17.95 28.657c-.093-.332.175-.657.541-.657h1.827c.26 0 .484.168.543.405 0 0 2.378 9.532 2.478 9.593l2.693-9.607a.555.555 0 0 1 .542-.39h2.831c.268 0 .503.168.57.411 0 0 2.674 9.545 2.708 9.545l2.458-9.552a.552.552 0 0 1 .543-.405zM19.26 23.972a1.36 1.36 0 0 1-.358-.048 1.293 1.293 0 0 1-.923-1.597l.091-.3c1.367-4.257 5.358-7.118 9.933-7.118 4.57 0 8.56 2.856 9.93 7.107.03.094.059.189.086.284.2.69-.21 1.406-.915 1.601-.706.196-1.44-.204-1.641-.893a8.557 8.557 0 0 0-.065-.213c-1.02-3.166-3.992-5.292-7.395-5.292-3.407 0-6.38 2.13-7.397 5.3a7.368 7.368 0 0 0-.067.22 1.325 1.325 0 0 1-1.279.95z" class="french-vanilla-100" clip-rule="evenodd"></path></g></svg>